<svg width="96" height="96" xmlns="http://www.w3.org/2000/svg" xmlns:xlink="http://www.w3.org/1999/xlink" xml:space="preserve" overflow="hidden"><g transform="translate(-1077 -93)"><path d="M1095 161 1154 161C1154.6 161 1155 160.6 1155 160 1155 159.8 1155 159.7 1154.9 159.5L1140.9 135.5C1140.7 135.2 1140.4 135 1140 135L1140 135C1139.6 135 1139.3 135.2 1139.1 135.5L1132.8 147.2 1117.8 124.4C1117.7 124.2 1117.3 124 1117 124L1117 124C1116.7 124 1116.3 124.2 1116.2 124.5L1104.3 143.3C1104.2 143.4 1104.1 143.6 1104 143.7L1094.1 159.5C1093.8 160 1093.9 160.6 1094.4 160.9 1094.6 160.9 1094.8 161 1095 161ZM1140 138.1 1152.3 159 1140.5 159 1134 149.1 1140 138.1C1140 138.1 1140 138.1 1140 138.1 1140 138.1 1140 138.1 1140 138.1ZM1127.1 142.2 1121 138.6C1120.6 138.4 1120.1 138.4 1119.8 138.8L1117 141.6 1114.7 139.3C1114.4 139 1114 138.9 1113.6 139.1L1107.7 141.7 1117 126.9C1117 126.9 1117 126.9 1117 126.9L1127.1 142.2ZM1105.8 144.8 1113.8 141.2 1116.3 143.7C1116.7 144.1 1117.3 144.1 1117.7 143.7L1120.7 140.7 1129.5 145.8C1129.5 145.8 1129.5 145.8 1129.5 145.8L1138.1 159 1096.8 159 1105.8 144.8Z"/><path d="M1104 128C1105.7 128 1107 126.7 1107 125 1107 123.3 1105.7 122 1104 122 1102.3 122 1101 123.3 1101 125 1101 126.7 1102.3 128 1104 128ZM1104 124C1104.6 124 1105 124.4 1105 125 1105 125.6 1104.6 126 1104 126 1103.4 126 1103 125.6 1103 125 1103 124.4 1103.4 124 1104 124Z"/><path d="M1163 113 1087 113 1087 171 1163 171 1163 113ZM1161 169 1089 169 1089 115 1161 115 1161 169Z"/></g></svg>