<svg width="96" height="96" xmlns="http://www.w3.org/2000/svg" xmlns:xlink="http://www.w3.org/1999/xlink" xml:space="preserve" overflow="hidden"><g transform="translate(-742 -282)"><path d="M832.334 347.43 826.927 345.512 826.927 336.489 831.274 334.65C831.783 334.435 832.021 333.849 831.807 333.34 831.673 333.024 831.387 332.798 831.048 332.742L823.911 331.563 823.911 322.72 832.375 319.3C832.887 319.093 833.135 318.51 832.928 317.998 832.82 317.732 832.604 317.526 832.334 317.43L826.927 315.512 826.927 306.489 831.274 304.65C831.783 304.435 832.021 303.848 831.805 303.339 831.698 303.085 831.49 302.887 831.231 302.791L797.671 290.4C797.455 290.32 797.218 290.317 797 290.392L751.7 306.19C751.605 306.222 751.516 306.269 751.436 306.328 751.307 306.428 748.27 308.738 748.27 315.835 748.258 317.452 748.443 319.064 748.822 320.635 747.643 321.635 745.27 324.335 745.27 329.835 745.25 333.793 746.517 337.65 748.881 340.825 748.455 342.46 748.25 344.145 748.27 345.835 748.27 352.873 751.364 355.735 751.496 355.852 751.584 355.932 751.685 355.995 751.796 356.039L783.796 368.631C783.913 368.677 784.037 368.7 784.162 368.7 784.291 368.7 784.418 368.675 784.537 368.627L832.375 349.3C832.887 349.093 833.135 348.51 832.928 347.998 832.82 347.732 832.604 347.526 832.334 347.43ZM821.911 331.73 784.121 346.788 752.465 334.326 752.465 326.315 783.8 338.631C784.038 338.726 784.303 338.726 784.541 338.631L821.909 323.531ZM784.163 366.623 752.733 354.257C752.245 353.713 750.272 351.182 750.272 345.835 750.243 344.165 750.47 342.501 750.945 340.9 751.053 340.56 750.972 340.188 750.732 339.924 748.46 337.053 747.24 333.492 747.272 329.831 747.272 323.886 750.345 321.961 750.472 321.886 750.872 321.654 751.061 321.178 750.929 320.735 750.477 319.142 750.256 317.491 750.275 315.835 750.275 310.518 752.126 308.421 752.544 308.015L797.314 292.4 828.144 303.784C828.158 303.784 828.158 303.798 828.144 303.803L784.163 321.623 754.831 310.077C754.317 309.875 753.737 310.128 753.534 310.642 753.489 310.758 753.465 310.883 753.465 311.008L753.465 321.008C753.465 321.418 753.716 321.787 754.098 321.938L783.8 333.631C784.038 333.726 784.303 333.726 784.541 333.631L825.466 317.091 829.156 318.424C829.169 318.429 829.169 318.437 829.156 318.443L784.163 336.623 751.831 323.917C751.317 323.715 750.737 323.968 750.534 324.482 750.488 324.598 750.465 324.723 750.465 324.848L750.465 335.008C750.465 335.418 750.716 335.787 751.098 335.938L783.757 348.794C783.993 348.888 784.257 348.888 784.493 348.794L823.022 333.444 827.28 334.144C827.299 334.144 827.3 334.156 827.28 334.163L784.163 351.623 754.831 340.077C754.317 339.875 753.737 340.128 753.534 340.642 753.489 340.758 753.465 340.883 753.465 341.008L753.465 351.008C753.465 351.419 753.716 351.787 754.098 351.938L783.8 363.631C784.038 363.726 784.303 363.726 784.541 363.631L825.466 347.091 829.156 348.424C829.169 348.424 829.169 348.437 829.156 348.443ZM824.927 315.152 784.163 331.623 755.463 320.323 755.463 312.473 783.8 323.631C784.038 323.726 784.303 323.726 784.541 323.631L824.927 307.309ZM824.927 345.152 784.163 361.623 755.463 350.323 755.463 342.473 783.8 353.631C784.038 353.726 784.303 353.726 784.541 353.631L824.927 337.309Z"/></g></svg>