<svg width="96" height="96" xmlns="http://www.w3.org/2000/svg" xmlns:xlink="http://www.w3.org/1999/xlink" xml:space="preserve" overflow="hidden"><g transform="translate(-953 -589)"><path d="M1046.1 628.7 1034.8 609.9 1033.8 608.2 1032.1 609.3 1024.5 614C1023.6 614.5 1022.9 615.4 1022.6 616.4 1022.4 617.1 1022.4 617.9 1022.7 618.6 1020.6 619.3 1018.5 619.7 1016.3 619.7 1013.3 619.6 1010.3 619.1 1007.4 618.2 1006 617.8 1004.5 617.5 1003 617.2L1002.8 617.2 1002.8 617.2C1002.7 617.2 1002.6 617.2 1002.6 617.2L1002.4 617.2 1002.2 617.2C1002 617.2 1001.9 617.2 1001.7 617.2L1001.7 617.2C1000 617.2 998.3 617.9 997.2 619.2L996.4 620.1C995.1 619.6 993.7 619.3 992.3 619.3 992 619.3 991.8 619.3 991.5 619.3 990.9 619.3 990.4 619.4 989.8 619.4 988.5 619.5 987.2 619.6 985.9 619.6 983.7 619.7 981.5 619.2 979.5 618.3 979.6 617.7 979.6 617.1 979.5 616.4 979.2 615.4 978.5 614.5 977.6 614L970.1 609.3 968.4 608.2 967.4 609.9 955.9 628.7 954.9 630.4 956.6 631.4 964.3 636.1C965.7 637 967.4 636.9 968.7 635.9L975.2 643.5 975.3 643.7 975.5 643.8 975.5 643.8 974.1 645.4C972.3 647.5 972.5 650.6 974.5 652.4L974.5 652.4 974.5 652.4C975.4 653.2 976.5 653.6 977.7 653.6 977.9 653.6 978.1 653.6 978.3 653.6 979 653.5 979.6 653.3 980.2 652.9 980.3 654.1 980.9 655.3 981.8 656.1L981.8 656.1 981.8 656.1C982.7 656.9 983.8 657.3 985 657.3 985.1 657.3 985.3 657.3 985.4 657.3 985.9 657.3 986.4 657.2 986.9 657 987 658.1 987.5 659.2 988.4 659.9L988.4 659.9 988.4 659.9C989.2 660.6 990.2 661 991.2 661 991.4 661 991.5 661 991.7 661 992.4 661 993 660.7 993.6 660.4 993.8 661.1 994.2 661.8 994.8 662.3 995.6 663 996.6 663.4 997.7 663.3L997.9 663.3 998.1 663.3C998.7 663.2 999.3 662.9 999.8 662.6L999.9 662.7 1001.3 663.8 1001.4 663.9 1001.5 664C1002.4 664.6 1003.5 664.9 1004.5 664.9 1004.7 664.9 1004.9 664.9 1005.1 664.9 1007.6 664.7 1009.6 662.9 1010.3 660.5 1012.5 660.1 1014.3 658.4 1014.9 656.2 1017.2 655.7 1019 654 1019.5 651.8 1019.6 651.8 1019.8 651.8 1019.9 651.8 1023.1 651.5 1025.5 648.7 1025.3 645.5 1025.3 645.3 1025.3 645 1025.3 644.8L1026.1 643.8 1033 635.8C1034.3 636.9 1036.1 636.9 1037.6 636L1045.3 631.3 1047 630.3 1046.1 628.7ZM965.3 634.4 957.6 629.7 969 610.9 976.6 615.6C977.4 616 977.8 617 977.5 617.8L976.9 618.8 968.2 633.2 967.6 634.1C967.3 634.4 966.8 634.6 966.3 634.6 966 634.7 965.6 634.6 965.3 634.4ZM978.1 651.6C978 651.6 977.9 651.6 977.8 651.6 976.2 651.6 974.9 650.2 974.9 648.6 974.9 647.9 975.2 647.2 975.6 646.7L980.9 640.7C981.5 640.1 982.3 639.7 983.2 639.7 983.9 639.7 984.6 640 985.1 640.4 986.3 641.5 986.5 643.4 985.4 644.6L980.1 650.6C979.6 651.2 978.9 651.5 978.1 651.6ZM985.5 655.4C985.4 655.4 985.3 655.4 985.2 655.4 983.6 655.4 982.3 654 982.3 652.4 982.3 651.7 982.6 651 983 650.5L987.6 645.2C988.2 644.6 989 644.2 989.9 644.2 990.6 644.2 991.3 644.5 991.8 644.9 993 646 993.2 647.9 992.1 649.1L987.5 654.4C987 655 986.3 655.4 985.5 655.4L985.5 655.4ZM991.8 659.1C991.7 659.1 991.6 659.1 991.5 659.1 990.9 659.1 990.4 658.9 989.9 658.5 988.9 657.6 988.8 656 989.7 655L994.3 649.7C994.8 649.2 995.5 648.9 996.2 648.9 996.8 648.9 997.4 649.1 997.8 649.5 998.8 650.4 998.9 652 998 653L993.4 658.3C993 658.8 992.4 659.1 991.8 659.1L991.8 659.1ZM997.9 661.5C997.4 661.5 996.8 661.4 996.4 661 995.6 660.3 995.5 659 996.2 658.2L1000.1 653.7C1000.5 653.3 1001 653 1001.6 653 1002.1 653 1002.5 653.2 1002.9 653.5 1003.7 654.2 1003.8 655.5 1003.1 656.3L999.2 660.8C998.9 661.2 998.4 661.4 997.9 661.5L997.9 661.5ZM1019.9 649.8C1019.8 649.8 1019.6 649.8 1019.5 649.8 1018.9 649.8 1018.3 649.6 1017.8 649.4 1017.8 649.6 1017.9 649.8 1017.9 650 1018.1 652.2 1016.5 654.1 1014.3 654.3 1014.3 654.3 1014.3 654.3 1014.3 654.3 1014 654.3 1013.6 654.3 1013.3 654.2L1013.3 654.3C1013.5 656.5 1011.9 658.4 1009.7 658.6 1009.7 658.6 1009.7 658.6 1009.7 658.6 1009.4 658.6 1009 658.6 1008.7 658.5L1008.7 658.6C1008.9 660.8 1007.3 662.7 1005.1 662.9 1005.1 662.9 1005.1 662.9 1005.1 662.9 1005 662.9 1004.9 662.9 1004.8 662.9 1004.1 662.9 1003.4 662.7 1002.7 662.3L1001.4 661.3 1004.6 657.6C1006 655.9 1005.8 653.4 1004.2 652 1003.5 651.4 1002.6 651 1001.6 651 1001.3 651 1000.9 651 1000.6 651.1 1000.5 649.9 1000 648.8 999.1 648 998.3 647.3 997.2 646.9 996.1 646.9L996.1 646.9C995.6 646.9 995.2 647 994.7 647.1 994.7 645.7 994.1 644.4 993 643.4 992.1 642.6 991 642.1 989.8 642.2L989.8 642.2C989.2 642.2 988.6 642.3 988 642.5 987.9 641.1 987.3 639.8 986.3 638.9 985.4 638.1 984.3 637.6 983.1 637.7L983.1 637.7C981.7 637.7 980.3 638.3 979.3 639.4L976.7 642.4 976.6 642.3 969.8 634.4 978.5 620C980.7 621.1 983.2 621.6 985.7 621.5 987.7 621.5 989.7 621.3 991.5 621.1 991.7 621.1 991.9 621.1 992.1 621.1 993 621.1 993.9 621.2 994.7 621.5L989.2 628C988.1 629.2 987.6 630.8 987.7 632.4 987.8 634 988.6 635.4 989.8 636.5L989.8 636.5 989.8 636.5C990.9 637.4 992.3 637.9 993.7 637.9 993.9 637.9 994 637.9 994.2 637.9 995.8 637.8 997.3 637 998.3 635.8L1005.1 628 1005.1 628 1006.2 629 1022.3 642.8C1023 643.4 1023.4 644.4 1023.4 645.3 1023.4 645.4 1023.4 645.7 1023.4 645.7 1023.6 647.8 1022 649.6 1019.9 649.8 1019.9 649.8 1019.9 649.8 1019.9 649.8ZM1024.8 642.5C1024.5 642 1024.1 641.6 1023.7 641.2L1005 625.1 996.8 634.5C996.1 635.3 995.2 635.8 994.1 635.9 994 635.9 993.9 635.9 993.8 635.9 992.8 635.9 991.9 635.5 991.1 634.9 989.4 633.5 989.2 631.1 990.6 629.4 990.6 629.4 990.7 629.3 990.7 629.3L998.6 620.3C999.4 619.4 1000.5 619 1001.6 619 1001.7 619 1001.8 619 1002 619 1002.2 619 1002.3 619.1 1002.5 619.1 1007.1 620 1011.3 621.6 1016.2 621.6 1018.7 621.6 1021.2 621.2 1023.5 620.3L1029.3 629.7 1032 634.2 1024.8 642.5ZM1036.7 634.4C1036.4 634.6 1036 634.7 1035.7 634.7 1035.2 634.7 1034.7 634.5 1034.3 634.1L1033.7 633.1 1031 628.7 1024.7 618.3C1024.1 617.4 1024.4 616.3 1025.2 615.7 1025.3 615.7 1025.3 615.6 1025.4 615.6L1033.1 610.9 1044.4 629.7 1036.7 634.4Z"/></g></svg>