<svg width="96" height="96" xmlns="http://www.w3.org/2000/svg" xmlns:xlink="http://www.w3.org/1999/xlink" xml:space="preserve" overflow="hidden"><g transform="translate(-648 -563)"><path d="M709.9 625.4C717.7 617.9 718.1 605.5 710.7 597.5 718.6 601.6 725.1 607.9 728.9 612.1 724.9 616 718.1 621.8 709.9 625.4ZM670.6 604.8C673.9 602 677.4 599.6 681.2 597.6 673.9 605.6 674.3 617.9 682.1 625.4 673.9 621.8 667 616 663.1 612.1 665.4 609.5 667.9 607.1 670.6 604.8L670.6 604.8ZM696 627C687.2 627 680 619.8 680 611 680 602.2 687.2 595 696 595 704.8 595 712 602.2 712 611 712 619.8 704.8 627 696 627ZM734.9 609.3C729.1 602.5 713.9 587 696 587 678.1 587 662.9 602.5 657.1 609.3 655.6 611.1 655.7 613.6 657.3 615.3 663.2 621.5 678.3 635 696 635 713.7 635 728.8 621.5 734.8 615.3 736.3 613.7 736.4 611.1 734.9 609.3Z" fill="#D1D1D1"/><path d="M706 611C706 616.523 701.523 621 696 621 690.477 621 686 616.523 686 611 686 605.477 690.477 601 696 601 701.523 601 706 605.477 706 611Z" fill="#D1D1D1"/></g></svg>