<svg width="330" height="330" xmlns="http://www.w3.org/2000/svg" xmlns:xlink="http://www.w3.org/1999/xlink" xml:space="preserve" overflow="hidden"><defs><clipPath id="clip0"><rect x="2916" y="2145" width="330" height="330"/></clipPath><clipPath id="clip1"><path d="M2972.54 2173.07 3209.55 2402.69 3180.87 2432.29 2943.86 2202.66Z" fill-rule="evenodd" clip-rule="evenodd"/></clipPath><clipPath id="clip2"><path d="M2975.61 2176.04 3209.55 2402.69 3180.87 2432.29 2946.93 2205.64Z" fill-rule="evenodd" clip-rule="evenodd"/></clipPath><clipPath id="clip3"><path d="M3076.08 2072.33 3313.09 2301.96 3083.48 2538.96 2846.47 2309.34Z" fill-rule="evenodd" clip-rule="evenodd"/></clipPath></defs><g clip-path="url(#clip0)" transform="translate(-2916 -2145)"><g clip-path="url(#clip1)"><g clip-path="url(#clip2)"><g clip-path="url(#clip3)"><path d="M302.494 144.372 185.621 144.372 185.621 27.4995 144.372 27.4995 144.372 144.372 27.4995 144.372 27.4995 185.621 144.372 185.621 144.372 302.494 185.621 302.494 185.621 185.621 302.494 185.621Z" stroke="#A6A6A6" stroke-width="3.43743" fill="#BFBFBF" transform="matrix(0.718227 0.695838 -0.695824 0.718213 3076.08 2072.33)"/></g></g></g><path d="M3128.78 2359.5C3155.59 2333.72 3156.97 2291.09 3131.53 2263.59 3158.69 2277.69 3181.03 2299.34 3194.09 2313.78 3180.34 2327.19 3156.97 2347.12 3128.78 2359.5ZM2993.69 2288.69C3005.03 2279.06 3017.06 2270.81 3030.12 2263.94 3005.03 2291.44 3006.41 2333.72 3033.22 2359.5 3005.03 2347.12 2981.31 2327.19 2967.91 2313.78 2975.81 2304.84 2984.41 2296.59 2993.69 2288.69L2993.69 2288.69ZM3081 2365C3050.75 2365 3026 2340.25 3026 2310 3026 2279.75 3050.75 2255 3081 2255 3111.25 2255 3136 2279.75 3136 2310 3136 2340.25 3111.25 2365 3081 2365ZM3214.72 2304.16C3194.78 2280.78 3142.53 2227.5 3081 2227.5 3019.47 2227.5 2967.22 2280.78 2947.28 2304.16 2942.12 2310.34 2942.47 2318.94 2947.97 2324.78 2968.25 2346.09 3020.16 2392.5 3081 2392.5 3141.84 2392.5 3193.75 2346.09 3214.38 2324.78 3219.53 2319.28 3219.88 2310.34 3214.72 2304.16Z" fill="#D1D1D1"/><path d="M3115.38 2310C3115.38 2328.98 3099.98 2344.38 3081 2344.38 3062.02 2344.38 3046.62 2328.98 3046.62 2310 3046.62 2291.02 3062.02 2275.62 3081 2275.62 3099.98 2275.62 3115.38 2291.02 3115.38 2310Z" fill="#D1D1D1"/></g></svg>