<svg width="96" height="96" xmlns="http://www.w3.org/2000/svg" xmlns:xlink="http://www.w3.org/1999/xlink" xml:space="preserve" overflow="hidden"><g transform="translate(-179 -546)"><path d="M185.567 597.958 192.056 604.446 197 599.764 197 631.976 222 631.986 222 607.017 232 607.017 232 631.99 257 632 257 599.722 261.969 604.422 268.433 597.959 227 558.6ZM255 630 234 629.991 234 605.017 220 605.017 220 629.985 199 629.977 199 597.87 227 571.354 255 597.831ZM192.094 601.656 188.433 598 227 561.356 265.567 598 261.93 601.632 227 568.6Z"/></g></svg>