<svg width="96" height="96" xmlns="http://www.w3.org/2000/svg" xmlns:xlink="http://www.w3.org/1999/xlink" xml:space="preserve" overflow="hidden"><g transform="translate(-563 -83)"><path d="M654.615 95.425 605.885 90.281 604.358 104.751 567.333 112.4 579.274 170.182 627.26 160.265 625.485 151.678 648.421 154.1ZM580.827 167.818 569.7 113.957 613.768 104.849 624.9 158.711ZM637.919 124.4C637.711 124.146 637.48 123.912 637.229 123.7 639.386 122.306 640.005 119.428 638.611 117.271 637.217 115.114 634.338 114.495 632.181 115.889 630.024 117.283 629.406 120.161 630.8 122.318 630.96 122.566 631.143 122.798 631.347 123.011 629.742 123.83 628.66 125.404 628.469 127.195L627.769 133.825 626.069 133.646 627.086 124.011C627.312 121.846 626.405 119.717 624.686 118.381 627.342 116.915 628.307 113.572 626.841 110.916 625.374 108.26 622.032 107.295 619.375 108.761 618.393 109.304 617.601 110.134 617.104 111.14L615.317 102.492 612.58 103.058 613 99.077 645.818 102.542 642.354 135.359 638.377 134.939 639.077 128.309C639.228 126.904 638.811 125.496 637.919 124.4ZM634.419 122.453C632.968 122.302 631.915 121.003 632.066 119.553 632.217 118.102 633.516 117.048 634.966 117.199 636.417 117.351 637.471 118.649 637.319 120.1 637.319 120.101 637.319 120.103 637.319 120.104 637.162 121.551 635.864 122.599 634.416 122.448ZM637.087 128.1 636.387 134.73 629.757 134.03 630.457 127.4C630.638 125.568 632.27 124.23 634.102 124.411 635.934 124.593 637.272 126.225 637.091 128.057 637.089 128.071 637.088 128.085 637.086 128.1ZM618.837 119.51C619.582 119.122 620.426 118.964 621.261 119.056 623.631 119.306 625.349 121.43 625.1 123.8L624.079 133.43 621.661 133.174ZM618.537 113.222C618.724 111.444 620.222 110.093 622.01 110.089 622.135 110.089 622.26 110.096 622.385 110.109 624.307 110.312 625.701 112.035 625.498 113.957 625.295 115.879 623.573 117.273 621.65 117.07 619.728 116.867 618.334 115.145 618.537 113.222 618.537 113.222 618.537 113.222 618.537 113.222ZM625.062 149.622 622.086 135.231 636.178 136.718 637.443 136.852 644.134 137.558 648.018 100.758 611.218 96.874 610.518 103.474 606.407 104.323 607.664 92.48 652.415 97.205 646.641 151.9Z"/><path d="M574.424 117.064 581.911 153.3 618.146 145.813 610.658 109.576ZM583.465 150.935 576.787 118.618 609.1 111.939 615.779 144.257Z"/><path d="M599.885 121.012C598.724 120.969 596.079 121.33 594.514 124.932 591.655 122.248 589.091 122.967 588.035 123.46 585.564 124.704 584.182 127.406 584.621 130.138 585.921 136.438 596.958 141.811 597.428 142.038 597.834 142.234 598.321 142.133 598.617 141.792 598.958 141.398 606.959 132.092 605.658 125.792 604.979 123.112 602.645 121.179 599.885 121.012ZM597.6 139.887C594.275 138.16 587.43 133.848 586.58 129.733 586.313 127.907 587.237 126.113 588.88 125.272 589.28 125.083 589.717 124.984 590.16 124.983 591.46 124.983 592.827 125.831 594.123 127.465 594.466 127.898 595.095 127.971 595.528 127.628 595.695 127.495 595.816 127.312 595.872 127.105 596.601 124.411 597.986 122.958 599.824 123.011 601.666 123.134 603.224 124.417 603.7 126.2 604.549 130.31 599.974 136.982 597.6 139.887Z"/></g></svg>