<svg width="96" height="96" xmlns="http://www.w3.org/2000/svg" xmlns:xlink="http://www.w3.org/1999/xlink" xml:space="preserve" overflow="hidden"><g transform="translate(-517 -360)"><path d="M588.3 421.9C586.1 419.7 582.5 419.8 579.8 421.9L575.6 417.7C586.5 405.9 585.8 387.6 574 376.7 562.2 365.8 544 366.6 533.1 378.4 522.2 390.2 523 408.5 534.7 419.4 545.9 429.8 563.2 429.7 574.3 419.2L578.5 423.4C577.6 424.5 577.1 425.9 576.9 427.3 576.7 429 577.3 430.7 578.5 431.9L592.6 446C593.7 447 595.1 447.6 596.6 447.6 598.6 447.6 600.4 446.8 601.8 445.4 603.1 444.2 603.9 442.5 604 440.7 604.2 439 603.6 437.3 602.4 436.1L588.3 421.9ZM535.4 417.1C524.9 406.6 524.9 389.5 535.4 378.9 545.9 368.3 563 368.4 573.6 378.9 584.2 389.4 584.1 406.5 573.6 417.1 568.5 422.2 561.7 425 554.5 425 547.4 425 540.5 422.2 535.4 417.1ZM600.3 443.8C598.4 445.7 595.5 446 593.9 444.4L579.9 430.4C579.1 429.6 578.8 428.5 578.9 427.4 579 426.1 579.6 424.9 580.6 424 581.6 423 583 422.4 584.4 422.3 585.4 422.3 586.3 422.6 587 423.3L601 437.4C601.8 438.2 602.1 439.3 602 440.4 601.8 441.7 601.3 442.9 600.3 443.8 600.3 443.8 600.3 443.8 600.3 443.8Z"/></g></svg>