<svg width="96" height="96" xmlns="http://www.w3.org/2000/svg" xmlns:xlink="http://www.w3.org/1999/xlink" xml:space="preserve" overflow="hidden"><g transform="translate(-449 -267)"><path d="M472.6 328.717 470.1 336.217 475.8 341.917 483.3 339.417C485.29 340.53 487.405 341.403 489.6 342.017L493.1 349.017 501.1 349.017 504.6 342.017C506.77 341.421 508.854 340.547 510.8 339.417L518.3 341.917 524 336.217 521.5 328.717C522.612 326.727 523.485 324.612 524.1 322.417L531.1 318.917 531.1 310.917 524 307.517C523.403 305.347 522.529 303.263 521.4 301.317L523.9 293.817 518.2 288.117 510.7 290.617C508.71 289.504 506.595 288.631 504.4 288.017L501 281 493 281 489.5 288C487.33 288.596 485.246 289.47 483.3 290.6L475.8 288.1 470.1 293.8 472.6 301.3C471.488 303.29 470.615 305.405 470 307.6L463 311 463 319 470 322.5C470.596 324.676 471.47 326.765 472.6 328.717ZM465 312.264 470.874 309.41 471.691 309.01 471.93 308.134C472.504 306.091 473.317 304.122 474.353 302.269L474.774 301.503 474.498 300.673 472.388 294.344 476.341 290.39 482.668 292.5 483.523 292.785 484.303 292.333C486.1 291.29 488.024 290.483 490.027 289.933L490.89 289.698 491.29 288.898 494.238 283 499.75 283 502.6 288.88 503 289.696 503.876 289.935C505.919 290.51 507.887 291.324 509.739 292.359L510.506 292.781 511.336 292.504 517.663 290.394 521.616 294.348 519.506 300.677 519.221 301.532 519.673 302.311C520.716 304.108 521.523 306.033 522.073 308.037L522.314 308.92 523.139 309.315 529.1 312.172 529.1 317.679 523.205 320.627 522.405 321.027 522.17 321.889C521.596 323.932 520.782 325.901 519.747 327.754L519.326 328.52 519.602 329.35 521.712 335.679 517.759 339.633 511.432 337.523 510.577 337.238 509.797 337.69C508 338.733 506.076 339.54 504.072 340.09L503.21 340.325 502.81 341.125 499.862 347.025 494.338 347.025 491.391 341.125 490.991 340.325 490.128 340.09C488.086 339.515 486.118 338.701 484.266 337.666L483.499 337.244 482.669 337.521 476.342 339.631 472.389 335.677 474.5 329.35 474.784 328.495 474.333 327.715C473.289 325.918 472.483 323.993 471.933 321.989L471.697 321.127 470.897 320.727 465 317.779Z"/><path d="M497 327.017C503.627 327.017 509 321.644 509 315.017 509 308.39 503.627 303.017 497 303.017 490.373 303.017 485 308.39 485 315.017 485.021 321.636 490.381 326.996 497 327.017ZM497 305.01C502.523 305.01 507 309.487 507 315.01 507 320.533 502.523 325.01 497 325.01 491.477 325.01 487 320.533 487 315.01 487.007 309.49 491.48 305.017 497 305.01Z"/></g></svg>