<svg width="96" height="96" xmlns="http://www.w3.org/2000/svg" xmlns:xlink="http://www.w3.org/1999/xlink" xml:space="preserve" overflow="hidden"><g transform="translate(-555 -563)"><path d="M627 649 627 572 579 572 579 649 565 649 565 651 581 651 581 574 625 574 625 651 641 651 641 649Z"/><path d="M585 651.1 616 646.8 616 582.1 585 577.8 585 651.1ZM587 580.1 614 583.8 614 645.1 587 648.8 587 580.1Z"/><path d="M610.7 612C609.6 612.1 608.7 612.9 608.5 614L604 614 604 616 608.5 616C608.7 617.1 609.6 617.9 610.7 618 612 618 613 616.7 613 615 613 613.3 612 612 610.7 612ZM610.7 614C610.8 614 611 614.5 611 615 611 615.4 610.8 616 610.7 616 610.5 616 610.3 615.4 610.4 615 610.3 614.5 610.6 614 610.7 614Z"/></g></svg>