<svg width="96" height="96" xmlns="http://www.w3.org/2000/svg" xmlns:xlink="http://www.w3.org/1999/xlink" xml:space="preserve" overflow="hidden"><g transform="translate(-657 -439)"><path d="M705 449C684.007 448.994 666.984 466.007 666.978 487 666.972 507.993 683.985 525.016 704.978 525.022 725.971 525.028 742.994 508.015 743 487.022 743 487.018 743 487.014 743 487.01 743.011 466.029 726.011 449.011 705.03 449 705.02 449 705.01 449 705 449ZM705 523.021C685.112 523.027 668.984 506.909 668.978 487.021 668.972 467.133 685.09 451.005 704.978 450.999 724.866 450.993 740.994 467.111 741 486.999 741 487.004 741 487.008 741 487.013 740.98 506.889 724.876 522.998 705 523.024Z"/><path d="M705.5 469.514 703.5 469.514 703.5 486 687 486 687 488 703.5 488 703.5 504.514 705.5 504.514 705.5 488 722 488 722 486 705.5 486 705.5 469.514Z"/></g></svg>